# xmcd
#
# Track frame offsets: 
#        150
#        15582
#        29312
#        48630
#        66750
#        83110
#        100725
#        122092
#        139842
#        156120
#        174202
#
# Disc length: 2561 seconds
#
# Revision: 4
# Processed by: cddbd v1.5.2PL0 Copyright (c) Steve Scherf et al.
# Submitted via: ExactAudioCopyFreeDBPlugin 1.0
#
DISCID=8609ff0b
DTITLE=Travis Tritt - Down The Road I Go
DYEAR=2000
DGENRE=Country
TTITLE0=Down The Road I Go
TTITLE1=Livin' On Borrowed Time
TTITLE2=Best Of Intentions
TTITLE3=It's A Great Day To Be Alive
TTITLE4=Love Of A Woman
TTITLE5=Never Get Away From Me (For Waylon And Jessi)
TTITLE6=Modern Day Bonnie And Clyde
TTITLE7=I Wish I Was Wrong
TTITLE8=If The Fall Don't Kill You
TTITLE9=Just To Tired To Fight It
TTITLE10=Southbound Train
EXTD=
EXTT0=
EXTT1=
EXTT2=
EXTT3=
EXTT4=
EXTT5=
EXTT6=
EXTT7=
EXTT8=
EXTT9=
EXTT10=
PLAYORDER=
